# xmcd
#
# Track frame offsets: 
#        150
#        14084
#        44806
#        69100
#        101327
#        125018
#        158597
#        228835
#        249156
#        285523
#
# Disc length: 4241 seconds
#
# Revision: 0
# Processed by: cddbd v1.5.2PL0 Copyright (c) Steve Scherf et al.
# Submitted via: ExactAudioCopy v1.0b6
#
DISCID=7c108f0a
DTITLE=麗蘭 - 磔磔2015盤 Walk On
DYEAR=2016
DGENRE=Blues
TTITLE0=Walk On
TTITLE1=ミッドナイト・ブギ
TTITLE2=C'mon Music Lover
TTITLE3=Mr. BLUES MAN
TTITLE4=夜風
TTITLE5=Yes We Can 2015
TTITLE6=今夜R&Bを…
TTITLE7=明日は明日の風が吹く
TTITLE8=紅
TTITLE9=歩く
EXTD=
EXTT0=
EXTT1=
EXTT2=
EXTT3=
EXTT4=
EXTT5=
EXTT6=
EXTT7=
EXTT8=
EXTT9=
PLAYORDER=
